<svg xmlns="http://www.w3.org/2000/svg" viewBox="0 0 328.97 285.14"><path d="M-982.48 202.69c28.41 16.02 56.69 32.27 84.86 48.72 4.66 2.72 8.22 2.66 12.82-.02 28.46-16.61 57.02-33.04 85.68-49.32 4.39-2.49 5.91-5.61 5.86-10.46-.19-16.33-.07-32.66-.07-48.99 0-16.5-.12-32.99.07-49.49.06-4.9-1.63-7.93-5.99-10.39-28.7-16.19-57.32-32.52-85.81-49.08-4.5-2.61-7.9-2.59-12.33-.02a8363.572 8363.572 0 01-85.82 49.06c-4.23 2.38-5.94 5.37-5.82 9.99.21 8.33.36 16.65.34 24.98-.05 24.49-.1 48.97-.38 73.46-.05 5.42 1.67 8.79 6.59 11.56zM-1957.57 70.3c-4.8-8.31-12.64-8.31-17.44 0l-78.33 135.67c-4.8 8.31-.87 15.1 8.72 15.1h156.66c9.59 0 13.51-6.8 8.72-15.1l-78.33-135.67zM-1675.82 79.07c0-9.35-7.65-17-17-17h-127c-9.35 0-17 7.65-17 17v127c0 9.35 7.65 17 17 17h127c9.35 0 17-7.65 17-17v-127zM-1564.2 230.08c2.91 3.58 5.3 3.68 8.23.09 22.67-27.78 45.38-55.51 68.14-83.18 2.97-3.61 2.82-6.56-.1-10.08-22.71-27.38-45.34-54.85-68.03-82.25l-1.1-1.32c-1.63-1.29-4.3-1.34-5.95-.1l-1.08 1.32c-22.56 27.56-45.07 55.2-67.66 82.72-2.92 3.56-3.06 6.4-.08 10.03 22.6 27.52 45.14 55.11 67.63 82.77zM-1354.05 246.31c4.24 4.25 7.71 4.36 11.96.11 32.98-32.93 66.02-65.8 99.12-98.61 4.32-4.28 4.1-7.78-.15-11.95-33.03-32.46-65.96-65.03-98.96-97.51l-1.6-1.57c-2.37-1.53-6.26-1.59-8.65-.11l-1.58 1.57c-32.82 32.67-65.56 65.44-98.42 98.07-4.25 4.22-4.45 7.58-.11 11.89 32.89 32.62 65.68 65.32 98.39 98.11zM-1175.16 209.16c7.5 14.01 19.08 20.56 34.42 20.9 19.21.42 38.45-.14 57.63.71 13.29.59 22.55-6.04 29.05-15.73 11.71-17.47 22.62-35.55 32.51-54.1 5.02-9.41 7.48-21.24 2.57-31.12-10.45-21.03-22.09-41.55-34.44-61.54-5.17-8.37-13.59-14.17-24.79-13.81-11.35.36-22.72.08-34.09.08v-.18c-11.78 0-23.55-.03-35.33.01-10.72.04-19.29 4.59-25.02 13.47-10.85 16.81-20.76 34.24-32 50.78-8.96 13.19-6.76 25.7.02 38.22 9.54 17.57 20.02 34.66 29.47 52.31z"/><path fill="#FFF" d="M-1931.28 148.97c0-2.07-1.69-4.37-5.67-4.52-2.91-.15-4.6-.69-5.83-.69-.84 0-1.53.23-2.15 1.15-1.07 1.53-30.81 30.66-32.04 32.57-.61 1-.92 1.92-.92 2.91 0 1 .37 2.04 1.09 3.18-3.4 3.81-9.08 9.77-11.52 9.77-.77 0-1.15-.46-1.15-1.3 0-6.52 16.71-30.89 26.14-40.47.77-.77 1.15-1.38 1.15-2.07 0-1.76-4.37-5.21-5.98-5.21-.38 0-.77.15-1.07.54-5.9 7.05-11.5 15.02-16.17 22.23-1.69-1.15-1.61-4.91-6.13-4.91-6.67 0-21.92 17.71-21.92 27.06 0 2.61 2.45 4.14 3.45 5.52 1.15 1.69 2.53 2.68 5.13 2.68 1.99 0 5.75-2.61 8.2-4.68 1.15 2.53 3.76 5.37 7.05 5.37 5.56 0 11.86-7.28 15.16-11.78.67.58 1.25.82 2.16.82.46 0 1-.08 1.76-.23.46-.08 5.06-1 10.65-1.99-1.99 3.91-3.37 6.74-3.53 7.36-.08.15-.08.38-.08.54 0 2.22 3.83 3.99 6.59 3.99 1.53 0 2.76-.54 2.91-1.76.31-1.69 1.92-6.28 4.37-11.88 4.91-.77 9.35-1.38 11.42-1.38.54 0 1 .08 1.53.08 1.38 0 2.15-.77 2.15-1.69 0-3.45-5.06-4.22-7.66-4.22-1.23 0-2.68.08-4.29.15 4.52-9.73 10.19-20.39 14.26-24.76.63-.62.94-1.54.94-2.38zm-63.01 32.42c-4.37 8.05-8.81 11.42-10.65 11.42-.54 0-1-.38-1-.92 0-5.9 11.65-19.16 14.79-20.39.38-.15.69-.23 1-.23.46 0 1.15.31 1.46.92-2.22 3.53-4.52 7.36-5.6 9.2zm38.4-4.37c-3.99.46-7.89.92-11.04 1.3 3.83-4.98 13.8-15.87 19.77-20.39-1.75 4.91-5.35 12.35-8.73 19.09zM-1725.46 119.23c-2.15-1.38-2.84-2.38-4.06-2.38-.23 0-.38 0-.61.08-13.28 3.26-33.84 23.43-34.32 37.89-3.05 3.49-9.99 11.16-12.74 11.16-.77 0-1.15-.46-1.15-1.3 0-6.52 16.71-30.89 26.14-40.47.77-.77 1.15-1.38 1.15-2.07 0-1.76-4.37-5.21-5.98-5.21-.38 0-.77.15-1.07.54-5.9 7.05-11.5 15.02-16.17 22.23-1.69-1.15-1.61-4.91-6.13-4.91-6.67 0-21.92 17.71-21.92 27.06 0 2.61 2.45 4.14 3.45 5.52 1.15 1.69 2.53 2.68 5.13 2.68 1.99 0 5.75-2.61 8.2-4.68 1.15 2.53 3.76 5.37 7.05 5.37 5.26 0 11.18-6.52 14.6-11.03 1.03 3.43 3.16 4.47 4.02 5.67 1.99 2.91 5.44 4.52 8.89 4.6 6.97 0 23.45-14.64 23.45-25.22 0-4.83-2.15-4.68-3.76-7.59-1.15-2.3-4.06-4.22-7.13-4.52 2.45-2.38 6.82-5.75 13.11-7.43 1.38-.38 2.07-1.38 2.07-2.53 0-1.24-.76-2.54-2.22-3.46zm-57.71 34.8c-4.37 8.05-8.81 11.42-10.65 11.42-.54 0-1-.38-1-.92 0-5.9 11.65-19.16 14.79-20.39.38-.15.69-.23 1-.23.46 0 1.15.31 1.46.92-2.23 3.52-4.53 7.36-5.6 9.2zm47.75-12.42c0 7.43-11.96 21.69-18.62 21.69-2.15 0-3.37-1.69-3.37-4.29 0-7.97 10.42-21.38 18.62-21.38 2.6-.01 3.37 1.22 3.37 3.98zM-1522.45 131.03c0-4.37-2.22-7.89-4.06-9.81-1.84-1.84-2.22-5.59-6.82-5.75-3.6-.08-16.94 6.21-16.94 15.25 0 2.61.84 4.91 2.15 6.44-4.98 1.3-18.09 5.52-18.39 14.79v.31c0 1.4.41 2.77.99 4.06-3.41 3.81-9.01 9.66-11.41 9.66-.77 0-1.15-.46-1.15-1.3 0-6.52 16.71-30.89 26.14-40.47.77-.77 1.15-1.38 1.15-2.07 0-1.76-4.37-5.21-5.98-5.21-.38 0-.77.15-1.07.54-5.9 7.05-11.5 15.02-16.17 22.23-1.69-1.15-1.61-4.91-6.13-4.91-6.67 0-21.92 17.71-21.92 27.06 0 2.61 2.45 4.14 3.45 5.52 1.15 1.69 2.53 2.68 5.13 2.68 1.99 0 5.75-2.61 8.2-4.68 1.15 2.53 3.76 5.37 7.05 5.37 5.26 0 11.19-6.52 14.6-11.03.64 1.01 1.25 1.92 1.64 2.68 1.15 2.22 5.98 8.05 14.72 8.05 8.2 0 18.39-4.91 18.39-14.41 0-5.06-3.45-9.73-6.13-12.65 6.35-1.85 12.56-4.99 12.56-12.35zm-60.47 23c-4.37 8.05-8.81 11.42-10.65 11.42-.54 0-1-.38-1-.92 0-5.9 11.65-19.16 14.79-20.39.38-.15.69-.23 1-.23.46 0 1.15.31 1.46.92-2.23 3.52-4.53 7.36-5.6 9.2zm32.88 9.19c-4.91 0-9.96-2.15-9.96-7.59 0-8.51 15.18-10.81 17.48-11.04h.08c.84 0 6.36 2.99 6.36 8.12-.01 6.91-7.98 10.51-13.96 10.51zm8.35-27.36c-1.07 0-1.53-.69-1.53-1.84 0-5.14 7.82-11.5 12.42-11.5 2.22 0 3.99 1.92 3.99 4.14-.01 4.45-11.28 9.2-14.88 9.2z"/><g fill="#FFF"><path d="M-1329.95 123.29c0-1.38-1-2.68-2.15-3.76-1.3-1.23-1.99-3.14-3.45-3.14-.23 0-.38 0-.69.08-1.23.46-17.78 15.56-18.62 17.09a2.2 2.2 0 00-.38 1.23c0 .77.46 1.3 1.15 1.3.46 0 .92-.15 1.46-.61 1.99-1.46 4.52-2.91 6.52-3.83-3.03 4.4-9.68 14.45-14.08 21.7-.23-.2-.5-.31-.79-.31-.23 0-.54.08-.77.31-1.46 1.69-10.73 12.65-14.03 12.65-.77 0-1.15-.46-1.15-1.3 0-6.52 16.71-30.89 26.14-40.47.77-.77 1.15-1.38 1.15-2.07 0-1.76-4.37-5.21-5.98-5.21-.38 0-.77.15-1.07.54-5.9 7.05-11.5 15.02-16.17 22.23-1.69-1.15-1.61-4.91-6.13-4.91-6.67 0-21.92 17.71-21.92 27.06 0 2.61 2.45 4.14 3.45 5.52 1.15 1.69 2.53 2.68 5.13 2.68 1.99 0 5.75-2.61 8.2-4.68 1.15 2.53 3.76 5.37 7.05 5.37 4.31 0 9.06-4.37 12.51-8.43-.01.13-.02.26-.02.38 0 1.99 1.07 3.45 2.3 4.83.46.46 1.84 2.84 3.45 2.84.84 0 1.76-.61 2.61-2.45 9.58-20.85 22.61-39.32 25.45-42.61.6-.65.83-1.34.83-2.03zm-51.82 30.74c-4.37 8.05-8.81 11.42-10.65 11.42-.54 0-1-.38-1-.92 0-5.9 11.65-19.16 14.79-20.39.38-.15.69-.23 1-.23.46 0 1.15.31 1.46.92-2.22 3.52-4.52 7.36-5.6 9.2zM-1304.28 123.9c-1.76-2.76-1.92-3.99-4.98-6.28-.84-.61-1.76-.92-2.84-.92-9.89 0-28.21 26.06-28.21 38.4 0 1.3.23 2.53.69 3.45 1.69 3.37 3.83 4.98 8.2 9.04 1 1 2.68 1.46 4.52 1.46 13.18 0 27.13-24.76 27.13-35.64.01-6.13-2.98-7.13-4.51-9.51zm-24.52 40.09c-2.84 0-3.53-2.38-3.53-4.68 0-10.27 16.33-33.65 23.68-33.65 2.38 0 3.3 2.38 3.3 4.45 0 7.51-15.18 33.88-23.45 33.88z"/></g><g fill="#FFF"><path d="M-1096.16 123.29c0-1.38-1-2.68-2.15-3.76-1.3-1.23-1.99-3.14-3.45-3.14-.23 0-.38 0-.69.08-1.23.46-17.78 15.56-18.62 17.09a2.2 2.2 0 00-.38 1.23c0 .77.46 1.3 1.15 1.3.46 0 .92-.15 1.46-.61 1.99-1.46 4.52-2.91 6.51-3.83-3.03 4.4-9.68 14.45-14.08 21.7-.23-.2-.5-.31-.79-.31-.23 0-.54.08-.77.31-1.46 1.69-10.73 12.65-14.03 12.65-.77 0-1.15-.46-1.15-1.3 0-6.52 16.71-30.89 26.14-40.47.77-.77 1.15-1.38 1.15-2.07 0-1.76-4.37-5.21-5.98-5.21-.38 0-.77.15-1.07.54-5.9 7.05-11.5 15.02-16.17 22.23-1.69-1.15-1.61-4.91-6.13-4.91-6.67 0-21.92 17.71-21.92 27.06 0 2.61 2.45 4.14 3.45 5.52 1.15 1.69 2.53 2.68 5.13 2.68 1.99 0 5.75-2.61 8.2-4.68 1.15 2.53 3.76 5.37 7.05 5.37 4.31 0 9.06-4.37 12.51-8.43-.01.13-.02.26-.02.38 0 1.99 1.07 3.45 2.3 4.83.46.46 1.84 2.84 3.45 2.84.84 0 1.76-.61 2.61-2.45 9.58-20.85 22.61-39.32 25.45-42.61.61-.65.84-1.34.84-2.03zm-51.81 30.74c-4.37 8.05-8.81 11.42-10.65 11.42-.54 0-1-.38-1-.92 0-5.9 11.65-19.16 14.79-20.39.38-.15.69-.23 1-.23.46 0 1.15.31 1.46.92-2.23 3.52-4.53 7.36-5.6 9.2zM-1064.5 125.21c-2.84-3.91-3.53-5.9-4.91-6.82-1.46-1.07-3.14-1.53-4.98-1.53-8.12 0-18.62 8.74-21.31 11.11-1.23 1-2.15 2.45-2.15 4.22 0 2.38 1.61 4.45 4.14 4.45 1.76 0 3.91-1 5.98-2.61 5.21-4.14 6.13-10.81 15.56-10.81 2.07 0 2.99 1 2.99 2.38 0 .92-.46 1.92-1.15 2.91-1.76 2.22-26.75 17.48-31.96 21.77-5.44 4.52-6.9 8.12-6.9 10.96 0 1.3.31 2.45.77 3.45.77 2.07 1.38 5.36 3.76 5.36.38 0 .92-.15 1.46-.38 7.89-3.53 19.31-4.22 25.6-4.22.61 0 1.15.08 1.76.08 1.61 0 2.15-.77 2.15-1.61 0-5.06-9.43-5.29-12.65-5.29-5.52 0-11.19.84-13.64.92 5.59-6.13 29.97-17.55 34.41-22.92 1.92-2.38 2.53-4.68 2.53-6.59-.01-2.15-.77-3.84-1.46-4.83z"/></g><g fill="#FFF"><path d="M-895.66 158.62c-5.52 0-11.19.84-13.64.92 5.59-6.13 29.97-17.55 34.41-22.92 1.92-2.38 2.53-4.68 2.53-6.59 0-2.15-.77-3.83-1.46-4.83-2.84-3.91-3.53-5.9-4.91-6.82-1.46-1.07-3.14-1.53-4.98-1.53-8.12 0-18.62 8.74-21.31 11.11-1.23 1-2.15 2.45-2.15 4.22 0 2.38 1.61 4.45 4.14 4.45 1.76 0 3.91-1 5.98-2.61 5.21-4.14 6.13-10.81 15.56-10.81 2.07 0 2.99 1 2.99 2.38 0 .92-.46 1.92-1.15 2.91-1.76 2.22-26.75 17.48-31.96 21.77-1.22 1.02-2.23 1.98-3.08 2.91-.07.04-.15.09-.21.16-1.46 1.69-10.73 12.65-14.03 12.65-.77 0-1.15-.46-1.15-1.3 0-6.52 16.71-30.89 26.14-40.47.77-.77 1.15-1.38 1.15-2.07 0-1.76-4.37-5.21-5.98-5.21-.38 0-.77.15-1.07.54-5.9 7.05-11.5 15.02-16.17 22.23-1.69-1.15-1.61-4.91-6.13-4.91-6.67 0-21.92 17.71-21.92 27.06 0 2.61 2.45 4.14 3.45 5.52 1.15 1.69 2.53 2.68 5.13 2.68 1.99 0 5.75-2.61 8.2-4.68 1.15 2.53 3.76 5.37 7.05 5.37 4.07 0 8.53-3.9 11.92-7.75.13.61.33 1.17.57 1.69.77 2.07 1.38 5.36 3.76 5.36.38 0 .92-.15 1.46-.38 7.89-3.53 19.31-4.22 25.6-4.22.61 0 1.15.08 1.76.08 1.61 0 2.15-.77 2.15-1.61 0-5.07-9.43-5.3-12.65-5.3zm-39.24-4.59c-4.37 8.05-8.81 11.42-10.65 11.42-.54 0-1-.38-1-.92 0-5.9 11.65-19.16 14.79-20.39.38-.15.69-.23 1-.23.46 0 1.15.31 1.46.92-2.23 3.52-4.53 7.36-5.6 9.2z"/><path d="M-842.85 123.9c-1.76-2.76-1.92-3.99-4.98-6.28-.84-.61-1.76-.92-2.84-.92-9.89 0-28.21 26.06-28.21 38.4 0 1.3.23 2.53.69 3.45 1.69 3.37 3.83 4.98 8.2 9.04 1 1 2.68 1.46 4.52 1.46 13.18 0 27.13-24.76 27.13-35.64.01-6.13-2.98-7.13-4.51-9.51zm-24.53 40.09c-2.84 0-3.53-2.38-3.53-4.68 0-10.27 16.33-33.65 23.68-33.65 2.38 0 3.29 2.38 3.29 4.45.01 7.51-15.16 33.88-23.44 33.88z"/></g><path d="M187.92 125.67c-7.36 0-23.68 23.38-23.68 33.65 0 2.3.69 4.68 3.53 4.68 8.28 0 23.45-26.37 23.45-33.88-.01-2.08-.93-4.45-3.3-4.45zM118.94 143.91c-.31 0-.61.08-1 .23-3.14 1.23-14.79 14.49-14.79 20.39 0 .54.46.92 1 .92 1.84 0 6.28-3.37 10.65-11.42 1.07-1.84 3.37-5.67 5.59-9.2-.3-.62-.99-.92-1.45-.92zM225.01 125.67c-7.36 0-23.68 23.38-23.68 33.65 0 2.3.69 4.68 3.53 4.68 8.28 0 23.45-26.37 23.45-33.88 0-2.08-.92-4.45-3.3-4.45z"/><path d="M316 110.27c-33.03-32.46-65.96-65.03-98.96-97.51-1.6-1.57-3.63-2.7-5.9-4.36-2.27 1.61-4.35 2.68-5.92 4.25-22.5 22.4-44.97 44.82-67.45 67.24-4.85-4.78-9.7-9.57-14.55-14.34-1.6-1.57-3.63-2.7-5.9-4.36-2.27 1.61-4.35 2.68-5.92 4.25-32.82 32.67-65.56 65.44-98.42 98.07-4.25 4.22-4.45 7.58-.11 11.89 32.87 32.62 65.66 65.33 98.38 98.12 4.24 4.25 7.71 4.36 11.96.11 22.47-22.44 44.99-44.85 67.52-67.23 4.78 4.78 9.57 9.56 14.34 14.34 4.24 4.25 7.71 4.36 11.96.11 32.98-32.93 66.02-65.8 99.12-98.61 4.32-4.3 4.1-7.79-.15-11.97zm-178.29 60.08c-1.61 0-2.99-2.38-3.45-2.84-1.23-1.38-2.3-2.84-2.3-4.83 0-.12.01-.25.02-.38-3.46 4.06-8.21 8.43-12.51 8.43-3.29 0-5.9-2.84-7.05-5.37-2.45 2.07-6.21 4.68-8.2 4.68-2.61 0-3.99-1-5.13-2.68-1-1.38-3.45-2.91-3.45-5.52 0-9.35 15.25-27.06 21.92-27.06 4.52 0 4.45 3.76 6.13 4.91 4.68-7.2 10.27-15.18 16.17-22.23.31-.38.69-.54 1.07-.54 1.61 0 5.98 3.45 5.98 5.21 0 .69-.38 1.3-1.15 2.07-9.43 9.58-26.14 33.95-26.14 40.47 0 .84.38 1.3 1.15 1.3 3.29 0 12.57-10.96 14.03-12.65.23-.23.54-.31.77-.31.28 0 .56.12.79.31 4.4-7.25 11.05-17.3 14.08-21.7-1.99.92-4.52 2.38-6.51 3.83-.54.46-1 .61-1.46.61-.69 0-1.15-.54-1.15-1.3 0-.31.08-.77.38-1.23.84-1.53 17.4-16.63 18.62-17.09.31-.08.46-.08.69-.08 1.46 0 2.15 1.92 3.45 3.14 1.15 1.07 2.15 2.38 2.15 3.76 0 .69-.23 1.38-.84 1.99-2.84 3.3-15.87 21.77-25.45 42.61-.84 1.88-1.76 2.49-2.61 2.49zm31.96-1.3c-1.84 0-3.53-.46-4.52-1.46-4.37-4.06-6.51-5.67-8.2-9.04-.46-.92-.69-2.15-.69-3.45 0-12.34 18.32-38.4 28.21-38.4 1.07 0 1.99.31 2.84.92 3.07 2.3 3.22 3.53 4.98 6.28 1.53 2.38 4.52 3.37 4.52 9.5 0 10.89-13.95 35.65-27.14 35.65zm37.1 0c-1.84 0-3.53-.46-4.52-1.46-4.37-4.06-6.51-5.67-8.2-9.04-.46-.92-.69-2.15-.69-3.45 0-12.34 18.32-38.4 28.21-38.4 1.07 0 1.99.31 2.84.92 3.07 2.3 3.22 3.53 4.98 6.28 1.53 2.38 4.52 3.37 4.52 9.5-.01 10.89-13.96 35.65-27.14 35.65z"/></svg>