<?xml version="1.0" encoding="utf-8"?>
<!-- Generator: Adobe Illustrator 24.0.1, SVG Export Plug-In . SVG Version: 6.00 Build 0)  -->
<svg version="1.1" id="Layer_1" xmlns="http://www.w3.org/2000/svg" xmlns:xlink="http://www.w3.org/1999/xlink" x="0px" y="0px"
	 viewBox="0 0 328.97 285.14" enable-background="new 0 0 328.97 285.14" xml:space="preserve">
<g>
	<path d="M-1581.68-294.9c3.14-0.38,7.05-0.84,11.04-1.3c3.37-6.74,6.97-14.18,8.74-19.08
		C-1567.88-310.77-1577.84-299.89-1581.68-294.9z"/>
	<path d="M-1572.33-402.93c-4.8-8.31-12.64-8.31-17.44,0l-78.33,135.67c-4.8,8.31-0.87,15.1,8.72,15.1h156.66
		c9.59,0,13.51-6.8,8.72-15.1L-1572.33-402.93z M-1546.96-321.88c-4.06,4.37-9.73,15.02-14.26,24.76c1.61-0.08,3.07-0.15,4.29-0.15
		c2.61,0,7.66,0.77,7.66,4.22c0,0.92-0.77,1.69-2.15,1.69c-0.54,0-1-0.08-1.53-0.08c-2.07,0-6.52,0.61-11.42,1.38
		c-2.45,5.6-4.06,10.19-4.37,11.88c-0.15,1.23-1.38,1.76-2.91,1.76c-2.76,0-6.59-1.76-6.59-3.99c0-0.15,0-0.38,0.08-0.54
		c0.15-0.61,1.53-3.45,3.53-7.36c-5.59,1-10.19,1.92-10.65,1.99c-0.77,0.15-1.3,0.23-1.76,0.23c-0.91,0-1.49-0.24-2.16-0.82
		c-3.3,4.5-9.6,11.78-15.16,11.78c-3.3,0-5.9-2.84-7.05-5.37c-2.45,2.07-6.21,4.68-8.2,4.68c-2.61,0-3.99-1-5.13-2.68
		c-1-1.38-3.45-2.91-3.45-5.52c0-9.35,15.25-27.06,21.92-27.06c4.52,0,4.45,3.76,6.13,4.91c4.68-7.2,10.27-15.18,16.17-22.23
		c0.31-0.38,0.69-0.54,1.07-0.54c1.61,0,5.98,3.45,5.98,5.21c0,0.69-0.38,1.3-1.15,2.07c-9.43,9.58-26.14,33.95-26.14,40.47
		c0,0.84,0.38,1.3,1.15,1.3c2.43,0,8.12-5.97,11.52-9.77c-0.72-1.14-1.09-2.18-1.09-3.18c0-1,0.31-1.92,0.92-2.91
		c1.23-1.92,30.96-31.04,32.04-32.57c0.61-0.92,1.3-1.15,2.15-1.15c1.23,0,2.91,0.54,5.83,0.69c3.99,0.15,5.67,2.45,5.67,4.52
		C-1546.04-323.42-1546.34-322.5-1546.96-321.88z"/>
	<path d="M-1604.9-301.95c-0.31,0-0.61,0.08-1,0.23c-3.14,1.23-14.79,14.49-14.79,20.39c0,0.54,0.46,0.92,1,0.92
		c1.84,0,6.28-3.37,10.65-11.42c1.07-1.84,3.37-5.67,5.6-9.2C-1603.75-301.65-1604.44-301.95-1604.9-301.95z"/>
	<path d="M-1307.58-411.16h-127c-9.35,0-17,7.65-17,17v127c0,9.35,7.65,17,17,17h127c9.35,0,17-7.65,17-17v-127
		C-1290.58-403.51-1298.23-411.16-1307.58-411.16z M-1340.06-348.02c-6.29,1.69-10.65,5.06-13.11,7.43
		c3.07,0.31,5.98,2.22,7.13,4.52c1.61,2.91,3.76,2.76,3.76,7.59c0,10.58-16.48,25.22-23.45,25.22c-3.45-0.08-6.9-1.69-8.89-4.6
		c-0.86-1.2-2.99-2.23-4.02-5.67c-3.42,4.51-9.34,11.03-14.6,11.03c-3.3,0-5.9-2.84-7.05-5.37c-2.45,2.07-6.21,4.68-8.2,4.68
		c-2.61,0-3.99-1-5.13-2.68c-1-1.38-3.45-2.91-3.45-5.52c0-9.35,15.25-27.06,21.92-27.06c4.52,0,4.45,3.76,6.13,4.91
		c4.68-7.2,10.27-15.18,16.17-22.23c0.31-0.38,0.69-0.54,1.07-0.54c1.61,0,5.98,3.45,5.98,5.21c0,0.69-0.38,1.3-1.15,2.07
		c-9.43,9.58-26.14,33.95-26.14,40.47c0,0.84,0.38,1.3,1.15,1.3c2.76,0,9.7-7.67,12.74-11.16c0.48-14.46,21.03-34.63,34.32-37.89
		c0.23-0.08,0.38-0.08,0.61-0.08c1.23,0,1.92,1,4.06,2.38c1.46,0.92,2.22,2.22,2.22,3.45
		C-1337.99-349.4-1338.68-348.41-1340.06-348.02z"/>
	<path d="M-1393.79-329.32c-0.31,0-0.61,0.08-1,0.23c-3.14,1.23-14.79,14.49-14.79,20.39c0,0.54,0.46,0.92,1,0.92
		c1.84,0,6.28-3.37,10.65-11.42c1.07-1.84,3.37-5.67,5.6-9.2C-1392.64-329.01-1393.33-329.32-1393.79-329.32z"/>
	<path d="M-1372.17-314.22c0,2.61,1.23,4.29,3.37,4.29c6.67,0,18.62-14.26,18.62-21.69c0-2.76-0.77-3.99-3.37-3.99
		C-1361.75-335.61-1372.17-322.19-1372.17-314.22z"/>
	<path d="M-1145.56-350.71c-4.6,0-12.42,6.36-12.42,11.5c0,1.15,0.46,1.84,1.53,1.84c3.6,0,14.87-4.75,14.87-9.2
		C-1141.57-348.79-1143.34-350.71-1145.56-350.71z"/>
	<path d="M-1193.54-329.32c-0.31,0-0.61,0.08-1,0.23c-3.14,1.23-14.79,14.49-14.79,20.39c0,0.54,0.46,0.92,1,0.92
		c1.84,0,6.28-3.37,10.65-11.42c1.07-1.84,3.37-5.67,5.6-9.2C-1192.39-329.01-1193.08-329.32-1193.54-329.32z"/>
	<path d="M-1170.72-418.58c-1.1-1.32-1.1-1.32-1.1-1.32c-1.63-1.29-4.3-1.34-5.95-0.1c0,0,0,0-1.08,1.32
		c-22.56,27.56-45.07,55.2-67.66,82.72c-2.92,3.56-3.06,6.4-0.08,10.03c22.6,27.52,45.14,55.11,67.63,82.76
		c2.91,3.58,5.3,3.68,8.23,0.09c22.67-27.78,45.38-55.51,68.14-83.18c2.97-3.61,2.82-6.56-0.1-10.08
		C-1125.4-363.7-1148.03-391.17-1170.72-418.58z M-1149.77-329.86c2.68,2.91,6.13,7.59,6.13,12.65c0,9.5-10.19,14.41-18.39,14.41
		c-8.74,0-13.57-5.82-14.72-8.05c-0.39-0.76-1-1.67-1.64-2.68c-3.42,4.51-9.34,11.03-14.6,11.03c-3.3,0-5.9-2.84-7.05-5.37
		c-2.45,2.07-6.21,4.68-8.2,4.68c-2.61,0-3.99-1-5.13-2.68c-1-1.38-3.45-2.91-3.45-5.52c0-9.35,15.25-27.06,21.92-27.06
		c4.52,0,4.45,3.76,6.13,4.91c4.68-7.2,10.27-15.18,16.17-22.23c0.31-0.38,0.69-0.54,1.07-0.54c1.61,0,5.98,3.45,5.98,5.21
		c0,0.69-0.38,1.3-1.15,2.07c-9.43,9.58-26.14,33.95-26.14,40.47c0,0.84,0.38,1.3,1.15,1.3c2.41,0,8-5.85,11.41-9.66
		c-0.58-1.29-0.99-2.66-0.99-4.06c0-0.08,0-0.15,0-0.31c0.31-9.27,13.41-13.49,18.39-14.79c-1.3-1.53-2.15-3.83-2.15-6.44
		c0-9.04,13.34-15.33,16.94-15.25c4.6,0.15,4.98,3.91,6.82,5.75c1.84,1.92,4.06,5.44,4.06,9.81
		C-1137.2-334.84-1143.41-331.7-1149.77-329.86z"/>
	<path d="M-1157.21-328.63c-0.08,0-0.08,0-0.08,0c-2.3,0.23-17.48,2.53-17.48,11.04c0,5.44,5.06,7.59,9.96,7.59
		c5.98,0,13.95-3.6,13.95-10.5C-1150.85-325.64-1156.37-328.63-1157.21-328.63z"/>
	<path d="M-923.4-347.56c-7.36,0-23.68,23.38-23.68,33.65c0,2.3,0.69,4.68,3.53,4.68c8.28,0,23.45-26.37,23.45-33.88
		C-920.11-345.19-921.02-347.56-923.4-347.56z"/>
	<path d="M-992.38-329.32c-0.31,0-0.61,0.08-1,0.23c-3.14,1.23-14.79,14.49-14.79,20.39c0,0.54,0.46,0.92,1,0.92
		c1.84,0,6.28-3.37,10.65-11.42c1.07-1.84,3.37-5.67,5.6-9.2C-991.23-329.01-991.92-329.32-992.38-329.32z"/>
	<path d="M-956.83-434.89c-1.6-1.57-1.6-1.57-1.6-1.57c-2.37-1.53-6.26-1.59-8.65-0.11c0,0,0,0-1.58,1.57
		c-32.82,32.67-65.56,65.44-98.42,98.07c-4.25,4.22-4.45,7.58-0.11,11.89c32.87,32.62,65.66,65.33,98.38,98.12
		c4.24,4.25,7.71,4.36,11.96,0.11c32.98-32.93,66.02-65.8,99.12-98.61c4.32-4.28,4.1-7.78-0.15-11.95
		C-890.9-369.83-923.82-402.4-956.83-434.89z M-971-305.33c-0.84,1.84-1.76,2.45-2.61,2.45c-1.61,0-2.99-2.38-3.45-2.84
		c-1.23-1.38-2.3-2.84-2.3-4.83c0-0.12,0.01-0.25,0.02-0.38c-3.46,4.06-8.21,8.43-12.51,8.43c-3.3,0-5.9-2.84-7.05-5.37
		c-2.45,2.07-6.21,4.68-8.2,4.68c-2.61,0-3.99-1-5.13-2.68c-1-1.38-3.45-2.91-3.45-5.52c0-9.35,15.25-27.06,21.92-27.06
		c4.52,0,4.45,3.76,6.13,4.91c4.68-7.2,10.27-15.18,16.17-22.23c0.31-0.38,0.69-0.54,1.07-0.54c1.61,0,5.98,3.45,5.98,5.21
		c0,0.69-0.38,1.3-1.15,2.07c-9.43,9.58-26.14,33.95-26.14,40.47c0,0.84,0.38,1.3,1.15,1.3c3.3,0,12.57-10.96,14.03-12.65
		c0.23-0.23,0.54-0.31,0.77-0.31c0.28,0,0.56,0.12,0.79,0.31c4.4-7.25,11.05-17.3,14.08-21.7c-1.99,0.92-4.52,2.38-6.52,3.83
		c-0.54,0.46-1,0.61-1.46,0.61c-0.69,0-1.15-0.54-1.15-1.3c0-0.31,0.08-0.77,0.38-1.23c0.84-1.53,17.4-16.63,18.62-17.09
		c0.31-0.08,0.46-0.08,0.69-0.08c1.46,0,2.15,1.92,3.45,3.14c1.15,1.07,2.15,2.38,2.15,3.76c0,0.69-0.23,1.38-0.84,1.99
		C-948.39-344.65-961.42-326.18-971-305.33z M-941.64-304.18c-1.84,0-3.53-0.46-4.52-1.46c-4.37-4.06-6.51-5.67-8.2-9.04
		c-0.46-0.92-0.69-2.15-0.69-3.45c0-12.34,18.32-38.4,28.21-38.4c1.07,0,1.99,0.31,2.84,0.92c3.07,2.3,3.22,3.53,4.98,6.28
		c1.53,2.38,4.52,3.37,4.52,9.5C-914.51-328.94-928.46-304.18-941.64-304.18z"/>
	<path d="M-668.17-404.96c-5.17-8.37-13.59-14.17-24.79-13.81c-11.35,0.36-22.72,0.08-34.09,0.08c0-0.06,0-0.12,0-0.18
		c-11.78,0-23.55-0.03-35.33,0.01c-10.72,0.04-19.29,4.59-25.02,13.47c-10.85,16.81-20.76,34.24-32,50.78
		c-8.96,13.19-6.76,25.7,0.02,38.22c9.54,17.6,20.02,34.69,29.47,52.33c7.5,14.01,19.08,20.56,34.42,20.9
		c19.21,0.42,38.45-0.14,57.63,0.71c13.29,0.59,22.55-6.04,29.05-15.73c11.71-17.47,22.62-35.55,32.51-54.1
		c5.02-9.41,7.48-21.24,2.57-31.12C-644.19-364.46-655.82-384.97-668.17-404.96z M-739.81-302.88c-1.61,0-2.99-2.38-3.45-2.84
		c-1.23-1.38-2.3-2.84-2.3-4.83c0-0.12,0.01-0.25,0.02-0.38c-3.46,4.06-8.21,8.43-12.51,8.43c-3.29,0-5.9-2.84-7.05-5.37
		c-2.45,2.07-6.21,4.68-8.2,4.68c-2.61,0-3.99-1-5.13-2.68c-1-1.38-3.45-2.91-3.45-5.52c0-9.35,15.25-27.06,21.92-27.06
		c4.52,0,4.45,3.76,6.13,4.91c4.68-7.2,10.27-15.18,16.17-22.23c0.31-0.38,0.69-0.54,1.07-0.54c1.61,0,5.98,3.45,5.98,5.21
		c0,0.69-0.38,1.3-1.15,2.07c-9.43,9.58-26.14,33.95-26.14,40.47c0,0.84,0.38,1.3,1.15,1.3c3.29,0,12.57-10.96,14.03-12.65
		c0.23-0.23,0.54-0.31,0.77-0.31c0.28,0,0.56,0.12,0.79,0.31c4.4-7.25,11.05-17.3,14.08-21.7c-1.99,0.92-4.52,2.38-6.51,3.83
		c-0.54,0.46-1,0.61-1.46,0.61c-0.69,0-1.15-0.54-1.15-1.3c0-0.31,0.08-0.77,0.38-1.23c0.84-1.53,17.4-16.63,18.62-17.09
		c0.31-0.08,0.46-0.08,0.69-0.08c1.46,0,2.15,1.92,3.45,3.14c1.15,1.07,2.15,2.38,2.15,3.76c0,0.69-0.23,1.38-0.84,1.99
		c-2.84,3.3-15.87,21.77-25.45,42.61C-738.04-303.49-738.96-302.88-739.81-302.88z M-680.33-336.6
		c-4.45,5.37-28.82,16.79-34.41,22.92c2.45-0.08,8.12-0.92,13.64-0.92c3.22,0,12.65,0.23,12.65,5.29c0,0.84-0.54,1.61-2.15,1.61
		c-0.61,0-1.15-0.08-1.76-0.08c-6.29,0-17.71,0.69-25.6,4.22c-0.54,0.23-1.07,0.38-1.46,0.38c-2.38,0-2.99-3.3-3.76-5.36
		c-0.46-1-0.77-2.15-0.77-3.45c0-2.84,1.46-6.44,6.9-10.96c5.21-4.29,30.2-19.54,31.96-21.77c0.69-1,1.15-1.99,1.15-2.91
		c0-1.38-0.92-2.38-2.99-2.38c-9.43,0-10.35,6.67-15.56,10.81c-2.07,1.61-4.21,2.61-5.98,2.61c-2.53,0-4.14-2.07-4.14-4.45
		c0-1.76,0.92-3.22,2.15-4.22c2.68-2.38,13.18-11.11,21.31-11.11c1.84,0,3.53,0.46,4.98,1.53c1.38,0.92,2.07,2.91,4.91,6.82
		c0.69,1,1.46,2.68,1.46,4.83C-677.8-341.28-678.41-338.98-680.33-336.6z"/>
	<path d="M-758.58-329.32c-0.31,0-0.61,0.08-1,0.23c-3.14,1.23-14.79,14.49-14.79,20.39c0,0.54,0.46,0.92,1,0.92
		c1.84,0,6.28-3.37,10.65-11.42c1.07-1.84,3.37-5.67,5.59-9.2C-757.44-329.01-758.12-329.32-758.58-329.32z"/>
</g>
<g>
	<path d="M189.87-323.92c-7.36,0-23.68,23.38-23.68,33.65c0,2.3,0.69,4.68,3.53,4.68c8.28,0,23.45-26.37,23.45-33.88
		C193.17-321.55,192.25-323.92,189.87-323.92z"/>
	<path d="M120.89-305.68c-0.31,0-0.61,0.08-1,0.23c-3.14,1.23-14.79,14.49-14.79,20.39c0,0.54,0.46,0.92,1,0.92
		c1.84,0,6.28-3.37,10.65-11.42c1.07-1.84,3.37-5.67,5.59-9.2C122.04-305.38,121.35-305.68,120.89-305.68z"/>
	<path d="M226.97-323.92c-7.36,0-23.68,23.38-23.68,33.65c0,2.3,0.69,4.68,3.53,4.68c8.28,0,23.45-26.37,23.45-33.88
		C230.26-321.55,229.34-323.92,226.97-323.92z"/>
	<path d="M317.95-339.32c-33.03-32.46-65.96-65.03-98.96-97.51c-1.6-1.57-3.63-2.7-5.9-4.36c-2.27,1.61-4.35,2.68-5.92,4.25
		c-22.5,22.4-44.97,44.82-67.45,67.24c-4.85-4.78-9.7-9.57-14.55-14.34c-1.6-1.57-3.63-2.7-5.9-4.36c-2.27,1.61-4.35,2.68-5.92,4.25
		c-32.82,32.67-65.56,65.44-98.42,98.07c-4.25,4.22-4.45,7.58-0.11,11.89c32.87,32.62,65.66,65.33,98.38,98.12
		c4.24,4.25,7.71,4.36,11.96,0.11c22.47-22.44,44.99-44.85,67.52-67.23c4.78,4.78,9.57,9.56,14.34,14.34
		c4.24,4.25,7.71,4.36,11.96,0.11c32.98-32.93,66.02-65.8,99.12-98.61C322.42-331.65,322.2-335.14,317.95-339.32z M139.67-279.24
		c-1.61,0-2.99-2.38-3.45-2.84c-1.23-1.38-2.3-2.84-2.3-4.83c0-0.12,0.01-0.25,0.02-0.38c-3.46,4.06-8.21,8.43-12.51,8.43
		c-3.29,0-5.9-2.84-7.05-5.37c-2.45,2.07-6.21,4.68-8.2,4.68c-2.61,0-3.99-1-5.13-2.68c-1-1.38-3.45-2.91-3.45-5.52
		c0-9.35,15.25-27.06,21.92-27.06c4.52,0,4.45,3.76,6.13,4.91c4.68-7.2,10.27-15.18,16.17-22.23c0.31-0.38,0.69-0.54,1.07-0.54
		c1.61,0,5.98,3.45,5.98,5.21c0,0.69-0.38,1.3-1.15,2.07c-9.43,9.58-26.14,33.95-26.14,40.47c0,0.84,0.38,1.3,1.15,1.3
		c3.29,0,12.57-10.96,14.03-12.65c0.23-0.23,0.54-0.31,0.77-0.31c0.28,0,0.56,0.12,0.79,0.31c4.4-7.25,11.05-17.3,14.08-21.7
		c-1.99,0.92-4.52,2.38-6.51,3.83c-0.54,0.46-1,0.61-1.46,0.61c-0.69,0-1.15-0.54-1.15-1.3c0-0.31,0.08-0.77,0.38-1.23
		c0.84-1.53,17.4-16.63,18.62-17.09c0.31-0.08,0.46-0.08,0.69-0.08c1.46,0,2.15,1.92,3.45,3.14c1.15,1.07,2.15,2.38,2.15,3.76
		c0,0.69-0.23,1.38-0.84,1.99c-2.84,3.3-15.87,21.77-25.45,42.61C141.43-279.85,140.51-279.24,139.67-279.24z M171.63-280.54
		c-1.84,0-3.53-0.46-4.52-1.46c-4.37-4.06-6.51-5.67-8.2-9.04c-0.46-0.92-0.69-2.15-0.69-3.45c0-12.34,18.32-38.4,28.21-38.4
		c1.07,0,1.99,0.31,2.84,0.92c3.07,2.3,3.22,3.53,4.98,6.28c1.53,2.38,4.52,3.37,4.52,9.5C198.76-305.3,184.81-280.54,171.63-280.54
		z M208.72-280.54c-1.84,0-3.53-0.46-4.52-1.46c-4.37-4.06-6.51-5.67-8.2-9.04c-0.46-0.92-0.69-2.15-0.69-3.45
		c0-12.34,18.32-38.4,28.21-38.4c1.07,0,1.99,0.31,2.84,0.92c3.07,2.3,3.22,3.53,4.98,6.28c1.53,2.38,4.52,3.37,4.52,9.5
		C235.86-305.3,221.91-280.54,208.72-280.54z"/>
</g>
<g>
	<path d="M124.89,143.91c-0.31,0-0.61,0.08-1,0.23c-3.14,1.23-14.79,14.49-14.79,20.39c0,0.54,0.46,0.92,1,0.92
		c1.84,0,6.28-3.37,10.65-11.42c1.07-1.84,3.37-5.67,5.59-9.2C126.04,144.21,125.35,143.91,124.89,143.91z"/>
	<path d="M208.43,125.67c-7.36,0-23.68,23.38-23.68,33.65c0,2.3,0.69,4.68,3.53,4.68c8.28,0,23.45-26.37,23.45-33.88
		C211.72,128.04,210.81,125.67,208.43,125.67z"/>
	<path d="M262.31,142.62c0-16.5-0.12-32.99,0.07-49.49c0.06-4.9-1.63-7.93-5.99-10.39c-28.7-16.19-57.32-32.52-85.81-49.08
		c-4.5-2.61-7.9-2.59-12.33-0.02c-28.51,16.52-57.12,32.88-85.82,49.06c-4.23,2.38-5.94,5.37-5.82,9.99
		c0.21,8.33,0.36,16.65,0.34,24.98c-0.05,24.49-0.1,48.97-0.38,73.46c-0.06,5.4,1.66,8.77,6.58,11.55
		c28.41,16.02,56.69,32.27,84.86,48.72c4.66,2.72,8.22,2.66,12.82-0.02c28.46-16.61,57.02-33.04,85.68-49.32
		c4.39-2.49,5.91-5.61,5.86-10.46C262.2,175.28,262.32,158.95,262.31,142.62z M170.49,165.52c-0.61,0-1.15-0.08-1.76-0.08
		c-6.29,0-17.71,0.69-25.6,4.22c-0.54,0.23-1.07,0.38-1.46,0.38c-2.38,0-2.99-3.3-3.76-5.36c-0.24-0.52-0.43-1.09-0.57-1.69
		c-3.4,3.85-7.86,7.75-11.92,7.75c-3.29,0-5.9-2.84-7.05-5.37c-2.45,2.07-6.21,4.68-8.2,4.68c-2.61,0-3.99-1-5.13-2.68
		c-1-1.38-3.45-2.91-3.45-5.52c0-9.35,15.25-27.06,21.92-27.06c4.52,0,4.45,3.76,6.13,4.91c4.68-7.2,10.27-15.18,16.17-22.23
		c0.31-0.38,0.69-0.54,1.07-0.54c1.61,0,5.98,3.45,5.98,5.21c0,0.69-0.38,1.3-1.15,2.07c-9.43,9.58-26.14,33.95-26.14,40.47
		c0,0.84,0.38,1.3,1.15,1.3c3.29,0,12.57-10.96,14.03-12.65c0.07-0.07,0.14-0.12,0.21-0.16c0.85-0.92,1.86-1.89,3.08-2.91
		c5.21-4.29,30.2-19.54,31.96-21.77c0.69-1,1.15-1.99,1.15-2.91c0-1.38-0.92-2.38-2.99-2.38c-9.43,0-10.35,6.67-15.56,10.81
		c-2.07,1.61-4.21,2.61-5.98,2.61c-2.53,0-4.14-2.07-4.14-4.45c0-1.76,0.92-3.22,2.15-4.22c2.68-2.38,13.18-11.11,21.31-11.11
		c1.84,0,3.53,0.46,4.98,1.53c1.38,0.92,2.07,2.91,4.91,6.82c0.69,1,1.46,2.68,1.46,4.83c0,1.92-0.61,4.22-2.53,6.59
		c-4.45,5.37-28.82,16.79-34.41,22.92c2.45-0.08,8.12-0.92,13.64-0.92c3.22,0,12.65,0.23,12.65,5.29
		C172.64,164.76,172.1,165.52,170.49,165.52z M190.19,169.05c-1.84,0-3.53-0.46-4.52-1.46c-4.37-4.06-6.51-5.67-8.2-9.04
		c-0.46-0.92-0.69-2.15-0.69-3.45c0-12.34,18.32-38.4,28.21-38.4c1.07,0,1.99,0.31,2.84,0.92c3.07,2.3,3.22,3.53,4.98,6.28
		c1.53,2.38,4.52,3.37,4.52,9.5C217.32,144.29,203.37,169.05,190.19,169.05z"/>
</g>
</svg>
