<svg xmlns="http://www.w3.org/2000/svg" viewBox="0 0 328.97 285.14"><path d="M163.86 178.33c3.14-.38 7.05-.84 11.04-1.3 3.37-6.74 6.97-14.18 8.74-19.08-5.99 4.51-15.95 15.39-19.78 20.38z"/><path d="M173.21 70.3c-4.8-8.31-12.64-8.31-17.44 0L77.44 205.97c-4.8 8.31-.87 15.1 8.72 15.1h156.66c9.59 0 13.51-6.8 8.72-15.1L173.21 70.3zm25.37 81.05c-4.06 4.37-9.73 15.02-14.26 24.76 1.61-.08 3.07-.15 4.29-.15 2.61 0 7.66.77 7.66 4.22 0 .92-.77 1.69-2.15 1.69-.54 0-1-.08-1.53-.08-2.07 0-6.52.61-11.42 1.38-2.45 5.6-4.06 10.19-4.37 11.88-.15 1.23-1.38 1.76-2.91 1.76-2.76 0-6.59-1.76-6.59-3.99 0-.15 0-.38.08-.54.15-.61 1.53-3.45 3.53-7.36-5.59 1-10.19 1.92-10.65 1.99-.77.15-1.3.23-1.76.23-.91 0-1.5-.24-2.16-.82-3.3 4.5-9.6 11.78-15.16 11.78-3.3 0-5.9-2.84-7.05-5.37-2.45 2.07-6.21 4.68-8.2 4.68-2.61 0-3.99-1-5.13-2.68-1-1.38-3.45-2.91-3.45-5.52 0-9.35 15.25-27.06 21.92-27.06 4.52 0 4.45 3.76 6.13 4.91 4.68-7.2 10.27-15.18 16.17-22.23.31-.38.69-.54 1.07-.54 1.61 0 5.98 3.45 5.98 5.21 0 .69-.38 1.3-1.15 2.07-9.43 9.58-26.14 33.95-26.14 40.47 0 .84.38 1.3 1.15 1.3 2.43 0 8.12-5.97 11.52-9.77-.72-1.14-1.09-2.18-1.09-3.18s.31-1.92.92-2.91c1.23-1.92 30.96-31.04 32.04-32.57.61-.92 1.3-1.15 2.15-1.15 1.23 0 2.91.54 5.83.69 3.99.15 5.67 2.45 5.67 4.52-.02.84-.33 1.76-.94 2.38z"/><path d="M140.63 171.27c-.31 0-.61.08-1 .23-3.14 1.23-14.79 14.49-14.79 20.39 0 .54.46.92 1 .92 1.84 0 6.28-3.37 10.65-11.42 1.07-1.84 3.37-5.67 5.6-9.2-.31-.61-1-.92-1.46-.92zM189.87-323.92c-7.36 0-23.68 23.38-23.68 33.65 0 2.3.69 4.68 3.53 4.68 8.28 0 23.45-26.37 23.45-33.88 0-2.08-.92-4.45-3.3-4.45zM120.89-305.68c-.31 0-.61.08-1 .23-3.14 1.23-14.79 14.49-14.79 20.39 0 .54.46.92 1 .92 1.84 0 6.28-3.37 10.65-11.42 1.07-1.84 3.37-5.67 5.59-9.2-.3-.62-.99-.92-1.45-.92zM226.97-323.92c-7.36 0-23.68 23.38-23.68 33.65 0 2.3.69 4.68 3.53 4.68 8.28 0 23.45-26.37 23.45-33.88-.01-2.08-.93-4.45-3.3-4.45z"/><path d="M317.95-339.32c-33.03-32.46-65.96-65.03-98.96-97.51-1.6-1.57-3.63-2.7-5.9-4.36-2.27 1.61-4.35 2.68-5.92 4.25-22.5 22.4-44.97 44.82-67.45 67.24-4.85-4.78-9.7-9.57-14.55-14.34-1.6-1.57-3.63-2.7-5.9-4.36-2.27 1.61-4.35 2.68-5.92 4.25-32.82 32.67-65.56 65.44-98.42 98.07-4.25 4.22-4.45 7.58-.11 11.89 32.87 32.62 65.66 65.33 98.38 98.12 4.24 4.25 7.71 4.36 11.96.11 22.47-22.44 44.99-44.85 67.52-67.23 4.78 4.78 9.57 9.56 14.34 14.34 4.24 4.25 7.71 4.36 11.96.11 32.98-32.93 66.02-65.8 99.12-98.61 4.32-4.3 4.1-7.79-.15-11.97zm-178.28 60.08c-1.61 0-2.99-2.38-3.45-2.84-1.23-1.38-2.3-2.84-2.3-4.83 0-.12.01-.25.02-.38-3.46 4.06-8.21 8.43-12.51 8.43-3.29 0-5.9-2.84-7.05-5.37-2.45 2.07-6.21 4.68-8.2 4.68-2.61 0-3.99-1-5.13-2.68-1-1.38-3.45-2.91-3.45-5.52 0-9.35 15.25-27.06 21.92-27.06 4.52 0 4.45 3.76 6.13 4.91 4.68-7.2 10.27-15.18 16.17-22.23.31-.38.69-.54 1.07-.54 1.61 0 5.98 3.45 5.98 5.21 0 .69-.38 1.3-1.15 2.07-9.43 9.58-26.14 33.95-26.14 40.47 0 .84.38 1.3 1.15 1.3 3.29 0 12.57-10.96 14.03-12.65.23-.23.54-.31.77-.31.28 0 .56.12.79.31 4.4-7.25 11.05-17.3 14.08-21.7-1.99.92-4.52 2.38-6.51 3.83-.54.46-1 .61-1.46.61-.69 0-1.15-.54-1.15-1.3 0-.31.08-.77.38-1.23.84-1.53 17.4-16.63 18.62-17.09.31-.08.46-.08.69-.08 1.46 0 2.15 1.92 3.45 3.14 1.15 1.07 2.15 2.38 2.15 3.76 0 .69-.23 1.38-.84 1.99-2.84 3.3-15.87 21.77-25.45 42.61-.85 1.88-1.77 2.49-2.61 2.49zm31.96-1.3c-1.84 0-3.53-.46-4.52-1.46-4.37-4.06-6.51-5.67-8.2-9.04-.46-.92-.69-2.15-.69-3.45 0-12.34 18.32-38.4 28.21-38.4 1.07 0 1.99.31 2.84.92 3.07 2.3 3.22 3.53 4.98 6.28 1.53 2.38 4.52 3.37 4.52 9.5-.01 10.89-13.96 35.65-27.14 35.65zm37.09 0c-1.84 0-3.53-.46-4.52-1.46-4.37-4.06-6.51-5.67-8.2-9.04-.46-.92-.69-2.15-.69-3.45 0-12.34 18.32-38.4 28.21-38.4 1.07 0 1.99.31 2.84.92 3.07 2.3 3.22 3.53 4.98 6.28 1.53 2.38 4.52 3.37 4.52 9.5 0 10.89-13.95 35.65-27.14 35.65z"/><g><path d="M-371.62-422.97c-.31 0-.61.08-1 .23-3.14 1.23-14.79 14.49-14.79 20.39 0 .54.46.92 1 .92 1.84 0 6.28-3.37 10.65-11.42 1.07-1.84 3.37-5.67 5.59-9.2-.3-.61-.99-.92-1.45-.92zM-288.08-441.21c-7.36 0-23.68 23.38-23.68 33.65 0 2.3.69 4.68 3.53 4.68 8.28 0 23.45-26.37 23.45-33.88 0-2.07-.92-4.45-3.3-4.45z"/><path d="M-234.19-424.25c0-16.5-.12-32.99.07-49.49.06-4.9-1.63-7.93-5.99-10.39-28.7-16.19-57.32-32.52-85.81-49.08-4.5-2.61-7.9-2.59-12.33-.02a8363.572 8363.572 0 01-85.82 49.06c-4.23 2.38-5.94 5.37-5.82 9.99.21 8.33.36 16.65.34 24.98-.05 24.49-.1 48.97-.38 73.46-.06 5.4 1.66 8.77 6.58 11.55 28.41 16.02 56.69 32.27 84.86 48.72 4.66 2.72 8.22 2.66 12.82-.02 28.46-16.61 57.02-33.04 85.68-49.32 4.39-2.49 5.91-5.61 5.86-10.46-.18-16.32-.06-32.65-.06-48.98zm-91.83 22.9c-.61 0-1.15-.08-1.76-.08-6.29 0-17.71.69-25.6 4.22-.54.23-1.07.38-1.46.38-2.38 0-2.99-3.3-3.76-5.36-.24-.52-.43-1.09-.57-1.69-3.4 3.85-7.86 7.75-11.92 7.75-3.29 0-5.9-2.84-7.05-5.37-2.45 2.07-6.21 4.68-8.2 4.68-2.61 0-3.99-1-5.13-2.68-1-1.38-3.45-2.91-3.45-5.52 0-9.35 15.25-27.06 21.92-27.06 4.52 0 4.45 3.76 6.13 4.91 4.68-7.2 10.27-15.18 16.17-22.23.31-.38.69-.54 1.07-.54 1.61 0 5.98 3.45 5.98 5.21 0 .69-.38 1.3-1.15 2.07-9.43 9.58-26.14 33.95-26.14 40.47 0 .84.38 1.3 1.15 1.3 3.29 0 12.57-10.96 14.03-12.65.07-.07.14-.12.21-.16.85-.92 1.86-1.89 3.08-2.91 5.21-4.29 30.2-19.54 31.96-21.77.69-1 1.15-1.99 1.15-2.91 0-1.38-.92-2.38-2.99-2.38-9.43 0-10.35 6.67-15.56 10.81-2.07 1.61-4.21 2.61-5.98 2.61-2.53 0-4.14-2.07-4.14-4.45 0-1.76.92-3.22 2.15-4.22 2.68-2.38 13.18-11.11 21.31-11.11 1.84 0 3.53.46 4.98 1.53 1.38.92 2.07 2.91 4.91 6.82.69 1 1.46 2.68 1.46 4.83 0 1.92-.61 4.22-2.53 6.59-4.45 5.37-28.82 16.79-34.41 22.92 2.45-.08 8.12-.92 13.64-.92 3.22 0 12.65.23 12.65 5.29 0 .85-.54 1.62-2.15 1.62zm19.7 3.52c-1.84 0-3.53-.46-4.52-1.46-4.37-4.06-6.51-5.67-8.2-9.04-.46-.92-.69-2.15-.69-3.45 0-12.34 18.32-38.4 28.21-38.4 1.07 0 1.99.31 2.84.92 3.07 2.3 3.22 3.53 4.98 6.28 1.53 2.38 4.52 3.37 4.52 9.5-.01 10.89-13.95 35.65-27.14 35.65z"/></g><g><path d="M691.7-525.97c-5.17-8.37-13.59-14.17-24.79-13.81-11.35.36-22.72.08-34.09.08v-.18c-11.78 0-23.55-.03-35.33.01-10.72.04-19.29 4.59-25.02 13.47-10.85 16.81-20.76 34.24-32 50.78-8.96 13.19-6.76 25.7.02 38.22 9.54 17.6 20.02 34.69 29.47 52.33 7.5 14.01 19.08 20.56 34.42 20.9 19.21.42 38.45-.14 57.63.71 13.29.59 22.55-6.04 29.05-15.73 11.71-17.47 22.62-35.55 32.51-54.1 5.02-9.41 7.48-21.24 2.57-31.12-10.46-21.06-22.1-41.57-34.44-61.56zm-71.64 102.08c-1.61 0-2.99-2.38-3.45-2.84-1.23-1.38-2.3-2.84-2.3-4.83 0-.12.01-.25.02-.38-3.46 4.06-8.21 8.43-12.51 8.43-3.29 0-5.9-2.84-7.05-5.37-2.45 2.07-6.21 4.68-8.2 4.68-2.61 0-3.99-1-5.13-2.68-1-1.38-3.45-2.91-3.45-5.52 0-9.35 15.25-27.06 21.92-27.06 4.52 0 4.45 3.76 6.13 4.91 4.68-7.2 10.27-15.18 16.17-22.23.31-.38.69-.54 1.07-.54 1.61 0 5.98 3.45 5.98 5.21 0 .69-.38 1.3-1.15 2.07-9.43 9.58-26.14 33.95-26.14 40.47 0 .84.38 1.3 1.15 1.3 3.29 0 12.57-10.96 14.03-12.65.23-.23.54-.31.77-.31.28 0 .56.12.79.31 4.4-7.25 11.05-17.3 14.08-21.7-1.99.92-4.52 2.38-6.51 3.83-.54.46-1 .61-1.46.61-.69 0-1.15-.54-1.15-1.3 0-.31.08-.77.38-1.23.84-1.53 17.4-16.63 18.62-17.09.31-.08.46-.08.69-.08 1.46 0 2.15 1.92 3.45 3.14 1.15 1.07 2.15 2.38 2.15 3.76 0 .69-.23 1.38-.84 1.99-2.84 3.3-15.87 21.77-25.45 42.61-.85 1.87-1.77 2.49-2.61 2.49zm59.48-33.73c-4.45 5.37-28.82 16.79-34.41 22.92 2.45-.08 8.12-.92 13.64-.92 3.22 0 12.65.23 12.65 5.29 0 .84-.54 1.61-2.15 1.61-.61 0-1.15-.08-1.76-.08-6.29 0-17.71.69-25.6 4.22-.54.23-1.07.38-1.46.38-2.38 0-2.99-3.3-3.76-5.36-.46-1-.77-2.15-.77-3.45 0-2.84 1.46-6.44 6.9-10.96 5.21-4.29 30.2-19.54 31.96-21.77.69-1 1.15-1.99 1.15-2.91 0-1.38-.92-2.38-2.99-2.38-9.43 0-10.35 6.67-15.56 10.81-2.07 1.61-4.21 2.61-5.98 2.61-2.53 0-4.14-2.07-4.14-4.45 0-1.76.92-3.22 2.15-4.22 2.68-2.38 13.18-11.11 21.31-11.11 1.84 0 3.53.46 4.98 1.53 1.38.92 2.07 2.91 4.91 6.82.69 1 1.46 2.68 1.46 4.83 0 1.92-.62 4.22-2.53 6.59z"/><path d="M601.28-450.33c-.31 0-.61.08-1 .23-3.14 1.23-14.79 14.49-14.79 20.39 0 .54.46.92 1 .92 1.84 0 6.28-3.37 10.65-11.42 1.07-1.84 3.37-5.67 5.59-9.2-.3-.62-.99-.92-1.45-.92z"/></g><g><path d="M-603.76-501.81c-7.36 0-23.68 23.38-23.68 33.65 0 2.3.69 4.68 3.53 4.68 8.28 0 23.45-26.37 23.45-33.88-.01-2.07-.93-4.45-3.3-4.45zM-672.74-483.57c-.31 0-.61.08-1 .23-3.14 1.23-14.79 14.49-14.79 20.39 0 .54.46.92 1 .92 1.84 0 6.28-3.37 10.65-11.42 1.07-1.84 3.37-5.67 5.6-9.2-.31-.61-1-.92-1.46-.92z"/><path d="M-637.19-589.13l-1.6-1.57c-2.37-1.53-6.26-1.59-8.65-.11l-1.58 1.57c-32.82 32.67-65.56 65.44-98.42 98.07-4.25 4.22-4.45 7.58-.11 11.89 32.87 32.62 65.66 65.33 98.38 98.12 4.24 4.25 7.71 4.36 11.96.11 32.98-32.93 66.02-65.8 99.12-98.61 4.32-4.28 4.1-7.78-.15-11.95-33.02-32.46-65.94-65.03-98.95-97.52zm-14.17 129.55c-.84 1.84-1.76 2.45-2.61 2.45-1.61 0-2.99-2.38-3.45-2.84-1.23-1.38-2.3-2.84-2.3-4.83 0-.12.01-.25.02-.38-3.46 4.06-8.21 8.43-12.51 8.43-3.3 0-5.9-2.84-7.05-5.37-2.45 2.07-6.21 4.68-8.2 4.68-2.61 0-3.99-1-5.13-2.68-1-1.38-3.45-2.91-3.45-5.52 0-9.35 15.25-27.06 21.92-27.06 4.52 0 4.45 3.76 6.13 4.91 4.68-7.2 10.27-15.18 16.17-22.23.31-.38.69-.54 1.07-.54 1.61 0 5.98 3.45 5.98 5.21 0 .69-.38 1.3-1.15 2.07-9.43 9.58-26.14 33.95-26.14 40.47 0 .84.38 1.3 1.15 1.3 3.3 0 12.57-10.96 14.03-12.65.23-.23.54-.31.77-.31.28 0 .56.12.79.31 4.4-7.25 11.05-17.3 14.08-21.7-1.99.92-4.52 2.38-6.52 3.83-.54.46-1 .61-1.46.61-.69 0-1.15-.54-1.15-1.3 0-.31.08-.77.38-1.23.84-1.53 17.4-16.63 18.62-17.09.31-.08.46-.08.69-.08 1.46 0 2.15 1.92 3.45 3.14 1.15 1.07 2.15 2.38 2.15 3.76 0 .69-.23 1.38-.84 1.99-2.83 3.34-15.86 21.81-25.44 42.65zm29.36 1.15c-1.84 0-3.53-.46-4.52-1.46-4.37-4.06-6.51-5.67-8.2-9.04-.46-.92-.69-2.15-.69-3.45 0-12.34 18.32-38.4 28.21-38.4 1.07 0 1.99.31 2.84.92 3.07 2.3 3.22 3.53 4.98 6.28 1.53 2.38 4.52 3.37 4.52 9.5-.01 10.9-13.96 35.65-27.14 35.65z"/></g><g><path d="M964.85-213.64c-4.6 0-12.42 6.36-12.42 11.5 0 1.15.46 1.84 1.53 1.84 3.6 0 14.87-4.75 14.87-9.2 0-2.22-1.76-4.14-3.98-4.14zM916.87-192.26c-.31 0-.61.08-1 .23-3.14 1.23-14.79 14.49-14.79 20.39 0 .54.46.92 1 .92 1.84 0 6.28-3.37 10.65-11.42 1.07-1.84 3.37-5.67 5.6-9.2-.31-.61-1-.92-1.46-.92z"/><path d="M939.68-281.51l-1.1-1.32c-1.63-1.29-4.3-1.34-5.95-.1l-1.08 1.32c-22.56 27.56-45.07 55.2-67.66 82.72-2.92 3.56-3.06 6.4-.08 10.03 22.6 27.52 45.14 55.11 67.63 82.76 2.91 3.58 5.3 3.68 8.23.09 22.67-27.78 45.38-55.51 68.14-83.18 2.97-3.61 2.82-6.56-.1-10.08-22.7-27.36-45.34-54.84-68.03-82.24zm20.95 88.72c2.68 2.91 6.13 7.59 6.13 12.65 0 9.5-10.19 14.41-18.39 14.41-8.74 0-13.57-5.82-14.72-8.05-.39-.76-1-1.67-1.64-2.68-3.42 4.51-9.34 11.03-14.6 11.03-3.3 0-5.9-2.84-7.05-5.37-2.45 2.07-6.21 4.68-8.2 4.68-2.61 0-3.99-1-5.13-2.68-1-1.38-3.45-2.91-3.45-5.52 0-9.35 15.25-27.06 21.92-27.06 4.52 0 4.45 3.76 6.13 4.91 4.68-7.2 10.27-15.18 16.17-22.23.31-.38.69-.54 1.07-.54 1.61 0 5.98 3.45 5.98 5.21 0 .69-.38 1.3-1.15 2.07-9.43 9.58-26.14 33.95-26.14 40.47 0 .84.38 1.3 1.15 1.3 2.41 0 8-5.85 11.41-9.66-.58-1.29-.99-2.66-.99-4.06v-.31c.31-9.27 13.41-13.49 18.39-14.79-1.3-1.53-2.15-3.83-2.15-6.44 0-9.04 13.34-15.33 16.94-15.25 4.6.15 4.98 3.91 6.82 5.75 1.84 1.92 4.06 5.44 4.06 9.81.01 7.37-6.2 10.51-12.56 12.35z"/><path d="M953.2-191.57h-.08c-2.3.23-17.48 2.53-17.48 11.04 0 5.44 5.06 7.59 9.96 7.59 5.98 0 13.95-3.6 13.95-10.5.01-5.14-5.51-8.13-6.35-8.13z"/></g><g><path d="M227.99-238.96h-127c-9.35 0-17 7.65-17 17v127c0 9.35 7.65 17 17 17h127c9.35 0 17-7.65 17-17v-127c0-9.35-7.65-17-17-17zm-32.48 63.14c-6.29 1.69-10.65 5.06-13.11 7.43 3.07.31 5.98 2.22 7.13 4.52 1.61 2.91 3.76 2.76 3.76 7.59 0 10.58-16.48 25.22-23.45 25.22-3.45-.08-6.9-1.69-8.89-4.6-.86-1.2-2.99-2.23-4.02-5.67-3.42 4.51-9.34 11.03-14.6 11.03-3.3 0-5.9-2.84-7.05-5.37-2.45 2.07-6.21 4.68-8.2 4.68-2.61 0-3.99-1-5.13-2.68-1-1.38-3.45-2.91-3.45-5.52 0-9.35 15.25-27.06 21.92-27.06 4.52 0 4.45 3.76 6.13 4.91 4.68-7.2 10.27-15.18 16.17-22.23.31-.38.69-.54 1.07-.54 1.61 0 5.98 3.45 5.98 5.21 0 .69-.38 1.3-1.15 2.07-9.43 9.58-26.14 33.95-26.14 40.47 0 .84.38 1.3 1.15 1.3 2.76 0 9.7-7.67 12.74-11.16.48-14.46 21.03-34.63 34.32-37.89.23-.08.38-.08.61-.08 1.23 0 1.92 1 4.06 2.38 1.46.92 2.22 2.22 2.22 3.45 0 1.16-.69 2.15-2.07 2.54z"/><path d="M141.78-157.12c-.31 0-.61.08-1 .23-3.14 1.23-14.79 14.49-14.79 20.39 0 .54.46.92 1 .92 1.84 0 6.28-3.37 10.65-11.42 1.07-1.84 3.37-5.67 5.6-9.2-.31-.62-1-.92-1.46-.92zM163.39-142.02c0 2.61 1.23 4.29 3.37 4.29 6.67 0 18.62-14.26 18.62-21.69 0-2.76-.77-3.99-3.37-3.99-8.19 0-18.62 13.42-18.62 21.39z"/></g></svg>